HIERARCHY
ROOT Hips
{
  OFFSET 5.84602e-005 68.8428 3.50346
  CHANNELS 6 Xposition Yposition Zposition Zrotation Xrotation Yrotation
  JOINT Spine
  {
    OFFSET 0 8.597 -4.6522
    CHANNELS 3 Zrotation Xrotation Yrotation
    JOINT Spine1
    {
      OFFSET 0 7.8454 0.4098
      CHANNELS 3 Zrotation Xrotation Yrotation
      JOINT Spine2
      {
        OFFSET 0 9.7078 -2.1609
        CHANNELS 3 Zrotation Xrotation Yrotation
        JOINT Neck
        {
          OFFSET 0 21.8761 -0.4549
          CHANNELS 3 Zrotation Xrotation Yrotation
          JOINT Head
          {
            OFFSET 0 12.3537 3.3602
            CHANNELS 3 Zrotation Xrotation Yrotation
            End Site
            {
              OFFSET 0.0001 18.9506 0.5657
            }
          }
        }
        JOINT LeftShoulder
        {
          OFFSET 2.2086 21.1115 7.2329
          CHANNELS 3 Zrotation Xrotation Yrotation
          JOINT LeftArm
          {
            OFFSET 13.1193 3.0282 -4.8998
            CHANNELS 3 Zrotation Xrotation Yrotation
            JOINT LeftForeArm
            {
              OFFSET 27.4081 -0.0973053 -0.2375
              CHANNELS 3 Zrotation Xrotation Yrotation
              JOINT LeftHand
              {
                OFFSET 22.8641 0.0662994 -0.1369
                CHANNELS 3 Zrotation Xrotation Yrotation
                JOINT LeftHandIndex1
                {
                  OFFSET 8.8614 0.775009 2.4612
                  CHANNELS 3 Zrotation Xrotation Yrotation
                  JOINT LeftHandIndex2
                  {
                    OFFSET 3.3146 -0.808304 0.5841
                    CHANNELS 3 Zrotation Xrotation Yrotation
                    JOINT LeftHandIndex3
                    {
                      OFFSET 2.2628 -0.552002 0.3989
                      CHANNELS 3 Zrotation Xrotation Yrotation
                      End Site
                      {
                        OFFSET 1.6102 -0.4807 0.2612
                      }
                    }
                  }
                }
                JOINT LeftHandMiddle1
                {
                  OFFSET 8.9937 0.895004 0.2143
                  CHANNELS 3 Zrotation Xrotation Yrotation
                  JOINT LeftHandMiddle2
                  {
                    OFFSET 4.0984 0.0113983 -0.0242
                    CHANNELS 3 Zrotation Xrotation Yrotation
                    JOINT LeftHandMiddle3
                    {
                      OFFSET 2.2716 0.00689697 -0.0138001
                      CHANNELS 3 Zrotation Xrotation Yrotation
                      End Site
                      {
                        OFFSET 2.0404 -0.1441 0.0027
                      }
                    }
                  }
                }
                JOINT LeftHandRing1
                {
                  OFFSET 8.5234 0.597198 -2.0164
                  CHANNELS 3 Zrotation Xrotation Yrotation
                  JOINT LeftHandRing2
                  {
                    OFFSET 3.7188 -0.188293 -0.2328
                    CHANNELS 3 Zrotation Xrotation Yrotation
                    JOINT LeftHandRing3
                    {
                      OFFSET 2.1191 -0.106598 -0.1332
                      CHANNELS 3 Zrotation Xrotation Yrotation
                      End Site
                      {
                        OFFSET 1.8737 -0.2304 -0.0886
                      }
                    }
                  }
                }
                JOINT LeftHandPinky1
                {
                  OFFSET 7.9094 -0.601089 -3.4825
                  CHANNELS 3 Zrotation Xrotation Yrotation
                  JOINT LeftHandPinky2
                  {
                    OFFSET 2.2874 -0.477005 -0.6314
                    CHANNELS 3 Zrotation Xrotation Yrotation
                    JOINT LeftHandPinky3
                    {
                      OFFSET 1.6774 -0.349396 -0.4633
                      CHANNELS 3 Zrotation Xrotation Yrotation
                      End Site
                      {
                        OFFSET 1.4888 -0.4091 -0.3416
                      }
                    }
                  }
                }
                JOINT LeftHandThumb1
                {
                  OFFSET 1.833 -1.3875 1.3896
                  CHANNELS 3 Zrotation Xrotation Yrotation
                  JOINT LeftHandThumb2
                  {
                    OFFSET 3.4129 -1.121 2.5732
                    CHANNELS 3 Zrotation Xrotation Yrotation
                    JOINT LeftHandThumb3
                    {
                      OFFSET 2.2474 -0.804199 1.6192
                      CHANNELS 3 Zrotation Xrotation Yrotation
                      End Site
                      {
                        OFFSET 1.6527 -0.5689 1.1317
                      }
                    }
                  }
                }
              }
            }
          }
        }
        JOINT RightShoulder
        {
          OFFSET -2.2086 21.1115 7.2329
          CHANNELS 3 Zrotation Xrotation Yrotation
          JOINT RightArm
          {
            OFFSET -13.1216 3.0287 -4.9007
            CHANNELS 3 Zrotation Xrotation Yrotation
            JOINT RightForeArm
            {
              OFFSET -27.4081 -0.0973053 -0.2375
              CHANNELS 3 Zrotation Xrotation Yrotation
              JOINT RightHand
              {
                OFFSET -22.8641 0.0664063 -0.1369
                CHANNELS 3 Zrotation Xrotation Yrotation
                JOINT RightHandIndex1
                {
                  OFFSET -8.8614 0.774994 2.4612
                  CHANNELS 3 Zrotation Xrotation Yrotation
                  JOINT RightHandIndex2
                  {
                    OFFSET -3.3146 -0.808304 0.5841
                    CHANNELS 3 Zrotation Xrotation Yrotation
                    JOINT RightHandIndex3
                    {
                      OFFSET -2.2628 -0.552002 0.3989
                      CHANNELS 3 Zrotation Xrotation Yrotation
                      End Site
                      {
                        OFFSET -1.6102 -0.4807 0.2612
                      }
                    }
                  }
                }
                JOINT RightHandMiddle1
                {
                  OFFSET -8.9937 0.894989 0.2143
                  CHANNELS 3 Zrotation Xrotation Yrotation
                  JOINT RightHandMiddle2
                  {
                    OFFSET -4.0984 0.0113983 -0.0242
                    CHANNELS 3 Zrotation Xrotation Yrotation
                    JOINT RightHandMiddle3
                    {
                      OFFSET -2.2716 0.00691223 -0.0138001
                      CHANNELS 3 Zrotation Xrotation Yrotation
                      End Site
                      {
                        OFFSET -2.0404 -0.1441 0.0027
                      }
                    }
                  }
                }
                JOINT RightHandRing1
                {
                  OFFSET -8.5234 0.597198 -2.0164
                  CHANNELS 3 Zrotation Xrotation Yrotation
                  JOINT RightHandRing2
                  {
                    OFFSET -3.7188 -0.188309 -0.2328
                    CHANNELS 3 Zrotation Xrotation Yrotation
                    JOINT RightHandRing3
                    {
                      OFFSET -2.1191 -0.106598 -0.1332
                      CHANNELS 3 Zrotation Xrotation Yrotation
                      End Site
                      {
                        OFFSET -1.8737 -0.2304 -0.0886
                      }
                    }
                  }
                }
                JOINT RightHandPinky1
                {
                  OFFSET -7.9094 -0.601105 -3.4825
                  CHANNELS 3 Zrotation Xrotation Yrotation
                  JOINT RightHandPinky2
                  {
                    OFFSET -2.2874 -0.477005 -0.6314
                    CHANNELS 3 Zrotation Xrotation Yrotation
                    JOINT RightHandPinky3
                    {
                      OFFSET -1.6774 -0.349396 -0.4633
                      CHANNELS 3 Zrotation Xrotation Yrotation
                      End Site
                      {
                        OFFSET -1.4888 -0.4091 -0.3416
                      }
                    }
                  }
                }
                JOINT RightHandThumb1
                {
                  OFFSET -1.833 -1.38751 1.3896
                  CHANNELS 3 Zrotation Xrotation Yrotation
                  JOINT RightHandThumb2
                  {
                    OFFSET -3.41299 -1.12099 2.5732
                    CHANNELS 3 Zrotation Xrotation Yrotation
                    JOINT RightHandThumb3
                    {
                      OFFSET -2.24741 -0.804108 1.6192
                      CHANNELS 3 Zrotation Xrotation Yrotation
                      End Site
                      {
                        OFFSET -1.6527 -0.5689 1.1317
                      }
                    }
                  }
                }
              }
            }
          }
        }
      }
    }
  }
  JOINT RightUpLeg
  {
    OFFSET -9.1966 3.8861 -0.7581
    CHANNELS 3 Zrotation Xrotation Yrotation
    JOINT RightLeg
    {
      OFFSET -0.7359 -41.0265 0
      CHANNELS 3 Zrotation Xrotation Yrotation
      JOINT RightFoot
      {
        OFFSET 0 -40.2855 0
        CHANNELS 3 Zrotation Xrotation Yrotation
        JOINT RightToeBase
        {
          OFFSET 0 -5.6122 11.7359
          CHANNELS 3 Zrotation Xrotation Yrotation
          End Site
          {
            OFFSET 0 0 7.8731
          }
        }
      }
    }
  }
  JOINT LeftUpLeg
  {
    OFFSET 9.1965 3.8864 -0.7581
    CHANNELS 3 Zrotation Xrotation Yrotation
    JOINT LeftLeg
    {
      OFFSET 0.7359 -41.0268 0
      CHANNELS 3 Zrotation Xrotation Yrotation
      JOINT LeftFoot
      {
        OFFSET 0 -40.2855 0
        CHANNELS 3 Zrotation Xrotation Yrotation
        JOINT LeftToeBase
        {
          OFFSET 0 -5.6122 11.7359
          CHANNELS 3 Zrotation Xrotation Yrotation
          End Site
          {
            OFFSET 0 0 7.8731
          }
        }
      }
    }
  }
}
MOTION
Frames:	4
Frame Time:	0.0333333
0.00792843 -78.9347 31.6905 -0 -31.0028 -0 -0.331 17.6726 -0.0769197 -0.689018 35.3455 -0.043579 -0.689018 35.3455 -0.0435793 -13.5126 -14.8025 17.8083 14.8473 -41.667 19.1127 -6.05473 -10.5874 -8.68633 -79.2452 -16.3898 -82.5852 45.3693 71.029 -101.352 -70.6628 -5.61873 -30.8331 4.41391e-032 -3.18055e-015 7.95139e-016 2.70219e-007 -1.63964e-007 2.86404e-007 5.40439e-007 -3.27927e-007 5.72808e-007 4.41391e-032 -3.18055e-015 7.95139e-016 -0.0146302 -9.70686e-005 -9.63396e-007 5.40435e-007 -3.28e-007 5.72766e-007 4.41391e-032 -3.18055e-015 7.95139e-016 -0.0186729 -0.00117216 5.48361e-005 5.40439e-007 -3.28021e-007 5.72749e-007 4.41391e-032 -3.18055e-015 7.95139e-016 -0.0121959 -0.0032317 0.000674823 5.40449e-007 -3.27992e-007 5.72758e-007 4.41391e-032 -3.18055e-015 7.95139e-016 2.70219e-007 -1.63964e-007 2.86404e-007 5.40439e-007 -3.27927e-007 5.72808e-007 6.04447 -10.6 9.16415 79.1861 -16.492 82.5122 -45.2225 71.0054 101.134 70.6307 -5.57239 30.8142 5.41538e-007 3.41966e-007 5.64222e-007 -4.06153e-007 -2.56474e-007 -4.23166e-007 1.35384e-007 8.54915e-008 1.41055e-007 5.41538e-007 3.41966e-007 5.64222e-007 0.0150092 -9.47043e-005 7.769e-008 1.35384e-007 8.55099e-008 1.41044e-007 5.41538e-007 3.41966e-007 5.64222e-007 0.0190889 -0.00119673 -5.72947e-005 1.35385e-007 8.55151e-008 1.4104e-007 5.41538e-007 3.41966e-007 5.64222e-007 0.0122629 -0.00325227 -0.000674893 1.35387e-007 8.55075e-008 1.41042e-007 5.41538e-007 3.41966e-007 5.64222e-007 -4.06153e-007 -2.56474e-007 -4.23166e-007 1.35384e-007 8.54915e-008 1.41055e-007 167.863 -74.289 168.983 -177.302 24.0875 168.609 13.3827 -16.6185 19.2802 -2.67136e-007 -2.82707e-008 -4.71661e-007 -160.201 -72.168 -161.588 177.328 24.0159 -168.561 -14.3799 -15.3665 -18.2032 1.98312e-009 -2.65921e-008 -8.76677e-010 
0.00762224 -78.9346 31.6905 -0 -31.0028 -0 -0.331 17.6727 -0.0769198 -0.689018 35.3455 -0.043579 -0.689018 35.3455 -0.0435794 -13.5992 -15.0474 18.1358 14.8045 -41.2148 19.1438 -6.18616 -10.5308 -8.49173 -79.265 -16.2166 -82.6177 45.3693 71.029 -101.352 -70.6628 -5.61875 -30.8331 1.59028e-014 -9.54166e-015 2.38542e-014 2.70551e-007 -1.63483e-007 2.86369e-007 8.11652e-007 -4.9045e-007 8.59108e-007 1.59028e-014 -9.54166e-015 2.38542e-014 -0.0146523 -9.14626e-005 -1.64902e-006 8.11646e-007 -4.9056e-007 8.59045e-007 1.59028e-014 -9.54166e-015 2.38542e-014 -0.0187558 -0.0011807 5.85987e-005 8.11652e-007 -4.90592e-007 8.59019e-007 1.59028e-014 -9.54166e-015 2.38542e-014 -0.012395 -0.00327846 0.000684552 8.11668e-007 -4.90549e-007 8.59032e-007 1.59028e-014 -9.54166e-015 2.38542e-014 2.70551e-007 -1.63483e-007 2.86369e-007 8.11652e-007 -4.9045e-007 8.59108e-007 6.17739 -10.5411 8.95877 79.2073 -16.3184 82.547 -45.2226 71.0054 101.134 70.6307 -5.57238 30.8142 8.1334e-007 5.11481e-007 8.46239e-007 9.48896e-007 5.96728e-007 9.87279e-007 5.42227e-007 3.40987e-007 5.64159e-007 8.1334e-007 5.11481e-007 8.46239e-007 0.0149103 -9.0256e-005 4.9602e-006 5.42224e-007 3.41061e-007 5.64115e-007 8.1334e-007 5.11481e-007 8.46239e-007 0.0190418 -0.00119296 -6.18548e-005 5.42229e-007 3.41082e-007 5.64097e-007 8.1334e-007 5.11481e-007 8.46239e-007 0.0123755 -0.00327535 -0.00068197 5.42239e-007 3.41052e-007 5.64107e-007 8.1334e-007 5.11481e-007 8.46239e-007 9.48896e-007 5.96728e-007 9.87279e-007 5.42227e-007 3.40987e-007 5.64159e-007 167.86 -74.2931 168.979 -177.302 24.0914 168.608 13.3824 -16.619 19.2798 -4.25688e-007 -5.71053e-008 -8.50753e-007 -160.596 -72.2056 -161.959 177.328 24.018 -168.56 -14.3618 -15.3653 -18.2129 -1.54058e-015 9.93923e-017 -0 
0.00734664 -78.9345 31.6906 -0 -31.0028 -0 -0.331 17.6726 -0.0769197 -0.689018 35.3455 -0.0435789 -0.689018 35.3455 -0.0435792 -13.6761 -15.2682 18.43 14.7661 -40.8083 19.172 -6.30458 -10.4804 -8.31648 -79.2827 -16.0606 -82.6469 45.3693 71.029 -101.352 -70.6628 -5.61875 -30.8331 -1.08339e-006 6.52202e-007 -1.14535e-006 -2.70848e-007 1.6305e-007 -2.86339e-007 6.36111e-015 1.59028e-015 -0 -1.08339e-006 6.52202e-007 -1.14535e-006 -0.0145498 -9.20733e-005 5.23879e-007 -9.54166e-015 1.59028e-015 3.97569e-015 -1.08339e-006 6.52202e-007 -1.14535e-006 -0.0187658 -0.00117336 5.54733e-005 -0 0 5.56597e-015 -1.08339e-006 6.52202e-007 -1.14535e-006 -0.0122998 -0.00324987 0.000678001 3.18055e-015 6.36111e-015 -2.38542e-015 -1.08339e-006 6.52202e-007 -1.14535e-006 -2.70848e-007 1.6305e-007 -2.86339e-007 6.36111e-015 1.59028e-015 -0 6.29717 -10.4886 8.77381 79.2262 -16.1621 82.5782 -45.2225 71.0054 101.134 70.6307 -5.57238 30.8142 -5.42844e-007 -3.40105e-007 -5.64104e-007 -5.42844e-007 -3.40105e-007 -5.64104e-007 -4.07133e-007 -2.55079e-007 -4.23078e-007 -5.42844e-007 -3.40105e-007 -5.64104e-007 0.0150115 -9.28615e-005 3.75494e-007 -2.18056e-006 -1.71161e-008 1.21057e-006 -5.42844e-007 -3.40105e-007 -5.64104e-007 0.0189554 -0.00118803 -6.44148e-005 -4.07135e-007 -2.55149e-007 -4.23032e-007 -5.42844e-007 -3.40105e-007 -5.64104e-007 0.012296 -0.00325603 -0.000680467 -4.07142e-007 -2.55127e-007 -4.23039e-007 -5.42844e-007 -3.40105e-007 -5.64104e-007 -5.42844e-007 -3.40105e-007 -5.64104e-007 -4.07133e-007 -2.55079e-007 -4.23078e-007 167.857 -74.297 168.975 -177.302 24.095 168.608 13.3822 -16.6194 19.2795 -9.19379e-016 -1.98785e-016 -0 -160.953 -72.2396 -162.295 177.328 24.0207 -168.56 -14.3439 -15.3646 -18.2226 3.47873e-016 0 -1.59028e-015 
0.00707108 -78.9344 31.6906 -0 -31.0028 -0 -0.331 17.6726 -0.0769197 -0.689018 35.3455 -0.043579 -0.689018 35.3455 -0.0435793 -13.7519 -15.4893 18.7245 14.7277 -40.4016 19.2003 -6.42315 -10.4303 -8.14114 -79.3004 -15.9047 -82.676 45.3693 71.029 -101.352 -70.6628 -5.61875 -30.8331 -8.1343e-007 4.87851e-007 -8.58925e-007 9.54166e-015 1.59028e-015 -3.18055e-015 -1.08457e-006 6.50468e-007 -1.14523e-006 -8.1343e-007 4.87851e-007 -8.58925e-007 -0.0146331 -9.59978e-005 1.55684e-008 -1.08457e-006 6.50614e-007 -1.14515e-006 -8.1343e-007 4.87851e-007 -8.58925e-007 -0.0187281 -0.00117083 5.95233e-005 -1.08457e-006 6.50656e-007 -1.14512e-006 -8.1343e-007 4.87851e-007 -8.58925e-007 -0.0123365 -0.00326841 0.00068066 -1.0846e-006 6.50599e-007 -1.14513e-006 -8.1343e-007 4.87851e-007 -8.58925e-007 9.54166e-015 1.59028e-015 -3.18055e-015 -1.08457e-006 6.50468e-007 -1.14523e-006 6.41711 -10.4365 8.58876 79.245 -16.0058 82.6094 -45.2225 71.0054 101.134 70.6307 -5.57239 30.8142 4.07594e-007 2.54416e-007 4.23038e-007 -5.43459e-007 -3.39222e-007 -5.6405e-007 3.18055e-015 -1.59028e-015 -0 4.07594e-007 2.54416e-007 4.23038e-007 0.0150631 -9.20723e-005 1.95273e-006 -6.36111e-015 -1.59028e-015 4.77083e-015 4.07594e-007 2.54416e-007 4.23038e-007 0.0189029 -0.00118718 -6.12045e-005 -9.54166e-015 -3.18055e-015 -7.95139e-016 4.07594e-007 2.54416e-007 4.23038e-007 0.0123089 -0.00325706 -0.000679247 1.78191e-006 -2.31052e-007 -1.64413e-006 4.07594e-007 2.54416e-007 4.23038e-007 -5.43459e-007 -3.39222e-007 -5.6405e-007 3.18055e-015 -1.59028e-015 -0 167.86 -74.29 168.978 -177.302 24.0877 168.608 13.3819 -16.6198 19.2791 -8.07563e-016 1.98785e-016 -0 -161.312 -72.2729 -162.631 177.327 24.0232 -168.56 -14.3258 -15.3639 -18.2324 1.54058e-015 -1.98785e-016 1.59028e-015 
